<svg xmlns="http://www.w3.org/2000/svg" xmlns:xlink="http://www.w3.org/1999/xlink" width="318" height="198" viewBox="0 0 318 198"><title>workflow</title><defs><rect id="b" width="300" height="180" rx="6"/><filter id="c" width="112%" x="-6%" y="-7.8%" filterUnits="objectBoundingBox"><feOffset dy="1" in="SourceAlpha" result="shadowOffsetOuter1"/><feGaussianBlur in="shadowOffsetOuter1" result="shadowBlurOuter1" stdDeviation="1.5"/><feColorMatrix in="shadowBlurOuter1" result="shadowMatrixOuter1" values="0 0 0 0 0 0 0 0 0 0 0 0 0 0 0 0 0 0 0.147843071 0"/><feOffset dy="3" in="SourceAlpha" result="shadowOffsetOuter2"/><feGaussianBlur in="shadowOffsetOuter2" result="shadowBlurOuter2" stdDeviation="4.5"/><feColorMatrix in="shadowBlurOuter2" result="shadowMatrixOuter2" values="0 0 0 0 0 0 0 0 0 0 0 0 0 0 0 0 0 0 0.0974298007 0"/><feMerge><feMergeNode in="shadowMatrixOuter1"/><feMergeNode in="shadowMatrixOuter2"/></feMerge></filter><linearGradient id="e" x1="50%" x2="50%" y1="0%" y2="100%"><stop offset="0%" stop-color="#942CB3"/><stop offset="100%" stop-color="#6B1884"/></linearGradient><rect id="g" width="80" height="38" x="10" y="29" rx="3"/><filter id="f" width="108.8%" height="118.4%" x="-4.4%" y="-6.6%" filterUnits="objectBoundingBox"><feOffset dy="1" in="SourceAlpha" result="shadowOffsetOuter1"/><feGaussianBlur in="shadowOffsetOuter1" result="shadowBlurOuter1" stdDeviation="1"/><feColorMatrix in="shadowBlurOuter1" values="0 0 0 0 0 0 0 0 0 0 0 0 0 0 0 0 0 0 0.12 0"/></filter><rect id="i" width="80" height="38" x="10" y="119" rx="3"/><filter id="h" width="108.8%" height="118.4%" x="-4.4%" y="-6.6%" filterUnits="objectBoundingBox"><feOffset dy="1" in="SourceAlpha" result="shadowOffsetOuter1"/><feGaussianBlur in="shadowOffsetOuter1" result="shadowBlurOuter1" stdDeviation="1"/><feColorMatrix in="shadowBlurOuter1" values="0 0 0 0 0 0 0 0 0 0 0 0 0 0 0 0 0 0 0.12 0"/></filter><linearGradient id="j" x1="50%" x2="50%" y1="0%" y2="100%"><stop offset="0%" stop-color="#FFCD23"/><stop offset="100%" stop-color="#EFB900"/></linearGradient><rect id="l" width="80" height="38" x="110" y="29" rx="3"/><filter id="k" width="108.8%" height="118.4%" x="-4.4%" y="-6.6%" filterUnits="objectBoundingBox"><feOffset dy="1" in="SourceAlpha" result="shadowOffsetOuter1"/><feGaussianBlur in="shadowOffsetOuter1" result="shadowBlurOuter1" stdDeviation="1"/><feColorMatrix in="shadowBlurOuter1" values="0 0 0 0 0 0 0 0 0 0 0 0 0 0 0 0 0 0 0.12 0"/></filter><rect id="a" width="80" height="38" x="110" y="74" rx="3"/><mask id="m" width="80" height="38" x="0" y="0" fill="#fff"><use xlink:href="#a"/></mask><path id="o" d="M88.4504 74.4665l73.8197 5.162c1.6528.1156 2.899 1.5491 2.7834 3.202l-2.2322 31.922c-.1155 1.6528-1.5491 2.899-3.202 2.7834l-73.8197-5.162c-1.6528-.1155-2.899-1.5491-2.7834-3.202l2.2322-31.922c.1156-1.6528 1.5492-2.899 3.202-2.7834z"/><filter id="n" width="108.5%" height="116.2%" x="-4.3%" y="-5.8%" filterUnits="objectBoundingBox"><feOffset dy="1" in="SourceAlpha" result="shadowOffsetOuter1"/><feGaussianBlur in="shadowOffsetOuter1" result="shadowBlurOuter1" stdDeviation="1"/><feColorMatrix in="shadowBlurOuter1" values="0 0 0 0 0 0 0 0 0 0 0 0 0 0 0 0 0 0 0.12 0"/></filter><linearGradient id="p" x1="50%" x2="50%" y1="0%" y2="100%"><stop offset="0%" stop-color="#95C21E"/><stop offset="100%" stop-color="#7CA511"/></linearGradient><rect id="r" width="80" height="38" x="210" y="29" rx="3"/><filter id="q" width="108.8%" height="118.4%" x="-4.4%" y="-6.6%" filterUnits="objectBoundingBox"><feOffset dy="1" in="SourceAlpha" result="shadowOffsetOuter1"/><feGaussianBlur in="shadowOffsetOuter1" result="shadowBlurOuter1" stdDeviation="1"/><feColorMatrix in="shadowBlurOuter1" values="0 0 0 0 0 0 0 0 0 0 0 0 0 0 0 0 0 0 0.12 0"/></filter><rect id="t" width="80" height="38" x="210" y="74" rx="3"/><filter id="s" width="108.8%" height="118.4%" x="-4.4%" y="-6.6%" filterUnits="objectBoundingBox"><feOffset dy="1" in="SourceAlpha" result="shadowOffsetOuter1"/><feGaussianBlur in="shadowOffsetOuter1" result="shadowBlurOuter1" stdDeviation="1"/><feColorMatrix in="shadowBlurOuter1" values="0 0 0 0 0 0 0 0 0 0 0 0 0 0 0 0 0 0 0.12 0"/></filter><rect id="v" width="80" height="38" x="210" y="119" rx="3"/><filter id="u" width="108.8%" height="118.4%" x="-4.4%" y="-6.6%" filterUnits="objectBoundingBox"><feOffset dy="1" in="SourceAlpha" result="shadowOffsetOuter1"/><feGaussianBlur in="shadowOffsetOuter1" result="shadowBlurOuter1" stdDeviation="1"/><feColorMatrix in="shadowBlurOuter1" values="0 0 0 0 0 0 0 0 0 0 0 0 0 0 0 0 0 0 0.12 0"/></filter><path id="x" d="M213 164h74c1.6569 0 3 1.3431 3 3v13h-80v-13c0-1.6569 1.3431-3 3-3z"/><filter id="w" width="108.8%" height="143.8%" x="-4.4%" y="-15.6%" filterUnits="objectBoundingBox"><feOffset dy="1" in="SourceAlpha" result="shadowOffsetOuter1"/><feGaussianBlur in="shadowOffsetOuter1" result="shadowBlurOuter1" stdDeviation="1"/><feColorMatrix in="shadowBlurOuter1" values="0 0 0 0 0 0 0 0 0 0 0 0 0 0 0 0 0 0 0.12 0"/></filter></defs><g fill="none" fill-rule="evenodd" transform="translate(9 6)"><mask id="d" fill="#fff"><use xlink:href="#b"/></mask><use fill="#000" filter="url(#c)" xlink:href="#b"/><use fill="#FFF" xlink:href="#b"/><path fill="#FDF7FF" d="M0 0h100v180H0z" mask="url(#d)"/><path fill="url(#e)" d="M0 0h100v19H0z" mask="url(#d)"/><text fill="#FFF" font-family="Roboto-Black, Roboto" font-size="9" font-weight="700" letter-spacing=".45" mask="url(#d)"><tspan x="32.029" y="13">DRAFT</tspan> <tspan x="62.782" y="13" letter-spacing=".506">S</tspan></text><g mask="url(#d)"><use fill="#000" filter="url(#f)" xlink:href="#g"/><use fill="#FFF" xlink:href="#g"/></g><path fill="#D4D6DD" d="M16 35h44v4H16z" mask="url(#d)"/><path fill="#EFF0F4" d="M16 43h68v4H16zm0 6h27v4H16z" mask="url(#d)"/><g mask="url(#d)"><use fill="#000" filter="url(#h)" xlink:href="#i"/><use fill="#FFF" xlink:href="#i"/></g><path fill="#D4D6DD" d="M16 125h44v4H16z" mask="url(#d)"/><path fill="#EFF0F4" d="M16 133h68v4H16zm0 6h27v4H16z" mask="url(#d)"/><path fill="url(#j)" d="M100 0h100v19H100z" mask="url(#d)"/><text fill="#FFF" font-family="Roboto-Black, Roboto" font-size="9" font-weight="700" letter-spacing=".45" mask="url(#d)"><tspan x="126.185" y="13">IN REVIEW</tspan></text><path fill="#FFF9E5" d="M100 19h100v161H100z" mask="url(#d)"/><g mask="url(#d)"><use fill="#000" filter="url(#k)" xlink:href="#l"/><use fill="#FFF" xlink:href="#l"/></g><path fill="#D4D6DD" d="M116 35h44v4h-44z" mask="url(#d)"/><path fill="#EFF0F4" d="M116 43h68v4h-68zm0 6h27v4h-27z" mask="url(#d)"/><g stroke="#EFB900" stroke-dasharray="5" stroke-width="4" mask="url(#d)"><use mask="url(#m)" xlink:href="#a"/></g><g mask="url(#d)"><use fill="#000" filter="url(#n)" xlink:href="#o"/><use fill="#FFF" xlink:href="#o"/></g><path fill="#D4D6DD" d="M91.0245 80.6612l43.8929 3.0693-.279 3.9902-43.8929-3.0693z" mask="url(#d)"/><path fill="#EFF0F4" d="M90.4665 88.6417l67.8343 4.7434-.279 3.9903-67.8343-4.7435zm-.4185 5.9853l26.9342 1.8835-.279 3.9902-26.9343-1.8834z" mask="url(#d)"/><path fill="url(#p)" d="M200 0h100v19H200z" mask="url(#d)"/><text fill="#FFF" font-family="Roboto-Black, Roboto" font-size="9" font-weight="700" letter-spacing=".45" mask="url(#d)"><tspan x="234.293" y="13">READY</tspan></text><path fill="#F7FFE1" d="M200 19h100v161H200z" mask="url(#d)"/><g mask="url(#d)"><use fill="#000" filter="url(#q)" xlink:href="#r"/><use fill="#FFF" xlink:href="#r"/></g><path fill="#D4D6DD" d="M216 35h44v4h-44z" mask="url(#d)"/><path fill="#EFF0F4" d="M216 43h68v4h-68zm0 6h27v4h-27z" mask="url(#d)"/><g mask="url(#d)"><use fill="#000" filter="url(#s)" xlink:href="#t"/><use fill="#FFF" xlink:href="#t"/></g><path fill="#D4D6DD" d="M216 80h44v4h-44z" mask="url(#d)"/><path fill="#EFF0F4" d="M216 88h68v4h-68zm0 6h27v4h-27z" mask="url(#d)"/><g mask="url(#d)"><use fill="#000" filter="url(#u)" xlink:href="#v"/><use fill="#FFF" xlink:href="#v"/></g><path fill="#D4D6DD" d="M216 125h44v4h-44z" mask="url(#d)"/><path fill="#EFF0F4" d="M216 133h68v4h-68zm0 6h27v4h-27z" mask="url(#d)"/><g mask="url(#d)"><use fill="#000" filter="url(#w)" xlink:href="#x"/><use fill="#FFF" xlink:href="#x"/></g><path fill="#D4D6DD" d="M216 170h44v4h-44z" mask="url(#d)"/><path fill="#EFF0F4" d="M216 178h68v2h-68z" mask="url(#d)"/></g></svg>